<svg id="choragiewki-icon" xmlns="http://www.w3.org/2000/svg" width="121" height="122.727" viewBox="0 0 121 122.727">
  <path id="Path_39" data-name="Path 39" d="M64.292,29.679c-7.046-2.12-10.462-5.62-11.95-7.648-.2-.324-.393-.563-.586-.871-.262-.416-.409-.717-.409-.717l-.077.015C32.637-8.028,4.706,7.191,4.706,7.191l16.413,52.07s11.556-13.761,25.21-1.5c.786.54,1.557,1.048,2.305,1.519,33.22,20.291,53.535-30.953,53.535-30.953C84.337,32.917,72.156,31.923,64.292,29.679Z" transform="translate(18.831 -2.75)" fill="#d9d9d9"/>
  <path id="Path_40" data-name="Path 40" d="M13.371,8.115A5.852,5.852,0,0,0,7.6,3.081,5.959,5.959,0,0,0,1.653,9.025a5.516,5.516,0,0,0,.64,2.506L40.378,125.808H51.942L13.464,8.131C13.433,8.1,13.41,8.146,13.371,8.115Z" transform="translate(-1.653 -3.081)" fill="#d9d9d9"/>
</svg>
