<svg xmlns="http://www.w3.org/2000/svg" width="144.422" height="90.512" viewBox="0 0 144.422 90.512">
  <path id="Union_3" data-name="Union 3" d="M15329.066,83.484a113.766,113.766,0,0,1-12.541-8.443,113.975,113.975,0,0,1-13.2-11.061c-.435-.438-.9-.837-1.363-1.243a28.818,28.818,0,0,0-7.952-5.333c.213-.093.36-.17.52-.225q17.8-6.129,35.608-12.239a5.89,5.89,0,0,1,1.607-.232,34.35,34.35,0,0,1,10.829,1.406,94.237,94.237,0,0,1,17.724,7.1c7.553,3.827,15.023,7.808,22.545,11.689a127.753,127.753,0,0,0,16.232,7.285c.325.116.654.232,1.143.4-2.247,1.286-4.334,2.517-6.453,3.691a123.289,123.289,0,0,1-22.348,9.938,68.9,68.9,0,0,1-14.876,3.1q-2.243.2-4.443.2A46.97,46.97,0,0,1,15329.066,83.484Zm99.983-5.817-2.812-.856-.077-.023q-4.217-1.284-8.447-2.572l-.081-.023c-7.2-2.192-14.637-4.454-21.945-6.7a100.1,100.1,0,0,1-9.478-3.788l-.022-.012q-.558-.25-.6-.279a.014.014,0,0,1,0-.012v-.015c-.4-.205-.794-.407-1.193-.612l-.209-.108c-1.391-.713-2.827-1.452-4.237-2.215-2.323-1.259-4.651-2.537-6.9-3.769l-.1-.058c-3.583-1.964-7.289-4-10.957-5.949a94.23,94.23,0,0,0-16.371-7.068A41.475,41.475,0,0,0,15334.2,41.5a1.826,1.826,0,0,1-.225-.027l-.074-.012c.008-.031.012-.066.016-.089l0-.015a.551.551,0,0,1,.035-.143,141.245,141.245,0,0,1,9.973-18.428,56.235,56.235,0,0,1,11.875-13.269,42.234,42.234,0,0,1,9.222-5.527,46.059,46.059,0,0,1,10.3-3.079,60.819,60.819,0,0,1,10.782-.91c2.355,0,4.757.112,7.348.345a52.382,52.382,0,0,1,8.219,1.3,1.529,1.529,0,0,1,.193.058l.008,0a63.416,63.416,0,0,1,8.819,4.09,42.1,42.1,0,0,1,7.843,5.7c.81.748,1.6,1.538,2.343,2.347a17.611,17.611,0,0,0-6.011,1.739,21.833,21.833,0,0,0-4.946,3.424,64.172,64.172,0,0,0-8.164,9.725c-4.965,6.766-10.1,13.753-18.843,15.543a.023.023,0,0,1,0,.015l0,.008c0,.015.008.027.02.031h.236a65.334,65.334,0,0,0,27.178-5.678,61.411,61.411,0,0,0,10.189-5.872,60.941,60.941,0,0,0,7.986-6.8,46.722,46.722,0,0,1,2.08,6.433,69.633,69.633,0,0,1,1.755,19.1,166.3,166.3,0,0,1-3.223,25.814c-.012.058-.031.12-.051.186s-.03.1-.042.159ZM15297.539,75.1a10.949,10.949,0,0,1-8.462-12.1,16.294,16.294,0,0,1,.832-2.916c.151-.48.465-.589.969-.465a16.228,16.228,0,0,1,5.108,2.316,48.19,48.19,0,0,1,5.821,4.783c2.734,2.479,5.492,4.934,8.234,7.4.026.019.038.058.112.182-1.472.321-2.9.682-4.346.937a23.288,23.288,0,0,1-3.994.366A17.569,17.569,0,0,1,15297.539,75.1Z" transform="translate(-15288.49 0.5)" fill="#d9d9d9" stroke="rgba(0,0,0,0)" stroke-width="1"/>
</svg>
