<svg xmlns="http://www.w3.org/2000/svg" width="156.867" height="148.814" viewBox="0 0 156.867 148.814">
  <g id="daszki-icon" transform="translate(60.771 -721.469) rotate(31)">
    <g id="Group_32" data-name="Group 32" transform="translate(366.915 620.068)">
      <path id="Path_46" data-name="Path 46" d="M400.143,878.292a.6.6,0,0,0,.191-.121l-1.326-1.487a1.984,1.984,0,0,1,1.194-.416l.207,1.981A1.541,1.541,0,0,0,400.143,878.292Z" transform="translate(-399.008 -842.242)" fill="#d9d9d9"/>
      <path id="Path_47" data-name="Path 47" d="M423.461,656.184l0-1.992q.645,0,1.315-.008l.021,1.992Q424.116,656.183,423.461,656.184Zm-.666,0q-.681,0-1.331-.01l.023-1.992q.642.008,1.315.01Zm2.667-.016-.031-1.992q.647-.01,1.313-.028l.053,1.991Q426.12,656.157,425.462,656.167Zm-4.663,0q-.685-.01-1.329-.024l.042-1.992q.638.014,1.317.024Zm-1.992-.039-1.325-.033.051-1.991,1.32.033Zm8.658-.005-.064-1.991q.648-.021,1.311-.05l.089,1.99Q428.124,656.1,427.464,656.119Zm-10.644-.044c-.47-.012-.91-.023-1.317-.031l.039-1.992c.411.008.854.019,1.329.031Zm-3.251-.035-.063-1.991c.231-.007.49-.011.792-.011q.272,0,.574,0l-.023,1.992q-.29,0-.551,0C414.018,656.03,413.78,656.033,413.57,656.04Zm15.9,0-.1-1.99q.648-.033,1.309-.075l.127,1.988Q430.128,656,429.467,656.037Zm2-.121-.141-1.987c.437-.031.877-.065,1.306-.1l.169,1.985C432.364,655.849,431.916,655.884,431.469,655.915Zm2-.163-.184-1.984c.438-.041.876-.085,1.3-.131l.215,1.98C434.366,655.666,433.918,655.711,433.47,655.752Zm2-.209-.231-1.979c.436-.051.872-.105,1.3-.162l.265,1.974C436.363,655.435,435.915,655.491,435.468,655.543Zm92.8-.144c-.362-.233-.74-.481-1.122-.737l1.109-1.655c.372.249.738.49,1.09.716Zm-90.81-.114-.282-1.972c.432-.062.866-.128,1.29-.2l.319,1.966C438.353,655.153,437.907,655.221,437.463,655.285Zm1.987-.312-.337-1.963c.429-.074.859-.152,1.28-.233l.377,1.956C440.335,654.816,439.891,654.9,439.45,654.972Zm1.978-.371-.4-1.952c.427-.087.855-.179,1.272-.273l.441,1.943C442.311,654.417,441.869,654.512,441.427,654.6Zm85.169-.314c-.357-.243-.727-.5-1.1-.762l1.146-1.63c.366.257.728.508,1.077.746Zm-83.2-.121-.463-1.938c.424-.1.848-.208,1.261-.317l.51,1.926C444.277,653.951,443.837,654.061,443.4,654.166Zm1.959-.506-.534-1.919c.419-.117.838-.239,1.247-.365l.585,1.9C446.229,653.411,445.793,653.539,445.357,653.66Zm79.595-.521q-.537-.382-1.083-.781l1.174-1.609q.538.392,1.065.768Zm-77.651-.062-.611-1.9c.414-.133.827-.273,1.228-.416l.667,1.877C448.164,652.792,447.732,652.938,447.3,653.077Zm1.922-.667-.7-1.867c.407-.152.813-.31,1.206-.471l.755,1.843C450.075,652.085,449.649,652.252,449.222,652.411Zm74.108-.447q-.53-.391-1.07-.8l1.2-1.594q.532.4,1.056.785Zm-72.215-.311-.786-1.831c.4-.171.794-.349,1.177-.53l.85,1.8C451.952,651.285,451.534,651.473,451.115,651.653Zm1.856-.856-.883-1.786c.387-.192.772-.391,1.143-.593l.952,1.75C453.789,650.383,453.381,650.594,452.971,650.8Zm68.758-.028q-.526-.4-1.059-.806l1.212-1.581q.528.4,1.049.8Zm-66.95-.933-.987-1.73c.373-.213.743-.434,1.1-.659l1.06,1.687C455.571,649.373,455.176,649.609,454.779,649.836Zm65.364-.278q-.522-.4-1.05-.814l1.225-1.572q.524.409,1.042.808Zm-63.617-.794-1.1-1.663c.357-.235.71-.48,1.05-.727l1.172,1.611C457.287,648.25,456.909,648.512,456.527,648.763Zm62.043-.429q-.519-.407-1.044-.821l1.234-1.564q.521.412,1.038.816Zm-60.369-.759-1.21-1.583c.337-.258.671-.526.991-.8l1.286,1.522C458.923,647.01,458.564,647.3,458.2,647.576Zm58.8-.473-1.039-.825,1.241-1.559,1.035.822Zm-57.221-.832-1.324-1.489c.316-.281.628-.573.926-.868l1.4,1.418C460.464,645.65,460.127,645.966,459.785,646.27Zm55.664-.406-1.036-.828,1.245-1.555,1.033.826Zm-54.178-1.023-1.437-1.38c.292-.3.579-.62.852-.937l1.51,1.3C461.9,644.169,461.587,644.511,461.27,644.842Zm52.626-.219-1.033-.829,1.248-1.553,1.032.828Zm-1.549-1.244-1.032-.829L512.563,641l1.032.829Zm-49.71-.082-1.545-1.257c.266-.327.525-.664.771-1l1.613,1.169C463.208,642.574,462.926,642.941,462.637,643.3Zm48.162-1.162-1.032-.828,1.247-1.554,1.033.829Zm-46.927-.493-1.645-1.124c.236-.346.467-.7.684-1.064l1.705,1.03C464.38,640.875,464.129,641.265,463.872,641.642Zm45.379-.749-1.033-.826,1.243-1.557,1.035.828Zm-44.287-1-1.733-.982c.207-.365.406-.741.593-1.118l1.785.885C465.406,639.084,465.189,639.493,464.964,639.889Zm42.736-.236-1.036-.823,1.238-1.561,1.04.827Zm-1.554-1.234q-.518-.41-1.037-.818l1.231-1.566,1.042.822Zm-40.239-.365-1.808-.836c.175-.38.344-.771.5-1.164l1.85.739C466.279,637.218,466.1,637.643,465.906,638.054Zm38.684-.859q-.519-.407-1.039-.81l1.222-1.573q.522.406,1.045.815ZM466.7,636.151l-1.868-.691c.145-.393.283-.8.41-1.2l1.9.6C467,635.29,466.853,635.727,466.7,636.151Zm36.336-.17q-.523-.4-1.045-.8l1.21-1.582q.527.4,1.054.81Zm-1.57-1.2q-.526-.4-1.051-.8l1.2-1.593q.53.4,1.061.8Zm-34.127-.581-1.915-.549c.116-.4.224-.819.322-1.234l1.939.458C467.576,633.318,467.46,633.764,467.336,634.2Zm32.549-.609q-.53-.4-1.058-.784l1.181-1.6q.534.393,1.069.792Zm-1.589-1.173q-.534-.39-1.066-.771l1.161-1.619q.539.386,1.079.781Zm-30.465-.21-1.949-.414.037-.178c.08-.389.167-.774.257-1.143l1.935.475c-.085.345-.166.7-.241,1.068C467.858,632.077,467.845,632.141,467.831,632.205Zm28.864-.944q-.539-.383-1.075-.756l1.138-1.635q.544.378,1.09.767Zm-28.424-.932-1.922-.523c.124-.454.258-.9.4-1.32l1.889.631C468.508,629.5,468.385,629.911,468.271,630.329Zm26.809-.2q-.545-.375-1.086-.738l1.111-1.654q.55.37,1.1.751Zm-1.631-1.1c-.368-.244-.737-.485-1.1-.716l1.077-1.676c.368.237.744.482,1.12.731Zm-24.6-.506-1.868-.692c.166-.448.345-.882.533-1.291l1.811.83C469.155,627.735,468.995,628.123,468.846,628.524Zm22.954-.562c-.373-.236-.747-.468-1.11-.691l1.038-1.7c.373.228.756.466,1.138.707Zm-1.669-1.028c-.381-.228-.759-.449-1.126-.659l.989-1.729c.378.216.768.444,1.159.678Zm-20.54-.119-1.773-.908c.222-.433.46-.848.709-1.232l1.673,1.081C469.987,626.085,469.783,626.441,469.591,626.815Zm18.847-.86c-.385-.215-.769-.424-1.143-.62l.93-1.762c.387.2.785.42,1.184.643Zm-17.9-.7-1.608-1.176a11.053,11.053,0,0,1,.931-1.115l1.439,1.377A9.048,9.048,0,0,0,470.542,625.259Zm16.179-.223c-.392-.2-.783-.393-1.161-.573l.854-1.8c.4.188.8.389,1.213.6Zm-1.746-.845c-.4-.182-.8-.354-1.181-.512l.758-1.842c.407.167.827.349,1.247.541Zm-13.249-.254-1.334-1.48a9.3,9.3,0,0,1,1.174-.9l1.081,1.673A7.272,7.272,0,0,0,471.724,623.936Zm11.473-.5c-.406-.158-.81-.3-1.2-.434l.633-1.889c.419.141.853.3,1.288.466Zm-10.055-.5-.938-1.757a9.026,9.026,0,0,1,1.363-.588l.636,1.888A7.024,7.024,0,0,0,473.143,622.936Zm8.25-.124c-.413-.126-.823-.238-1.217-.333l.464-1.937c.433.1.883.227,1.335.365Zm-1.828-.468c-.418-.084-.829-.151-1.224-.2l.234-1.978c.448.053.914.128,1.385.223Zm-4.8-.029-.486-1.932a10.276,10.276,0,0,1,1.441-.253l.206,1.982A8.277,8.277,0,0,0,474.763,622.315Zm2.968-.226a11.108,11.108,0,0,0-1.21-.02l-.081-1.99a13.108,13.108,0,0,1,1.43.023Z" transform="translate(-411.581 -620.068)" fill="#d9d9d9"/>
      <path id="Path_48" data-name="Path 48" d="M1282.339,878.059q-.285-.174-.574-.356l1.06-1.687q.279.175.554.344Z" transform="translate(-1164.526 -842.024)" fill="#d9d9d9"/>
    </g>
    <path id="Path_49" data-name="Path 49" d="M488.25,884.636c-17.2,8.613-38.678,13.728-61.97,13.728-23.241,0-44.672-5.092-61.857-13.672A42.223,42.223,0,0,0,362,898.829v5.047c0,23.362,16.6,46.019,64.413,46.019s64.28-22.657,64.28-46.019v-5.047A42.225,42.225,0,0,0,488.25,884.636Zm-122.332,6.29a1.66,1.66,0,1,1,1.66-1.66A1.66,1.66,0,0,1,365.918,890.926Zm120.592,0a1.66,1.66,0,1,1,1.66-1.66A1.66,1.66,0,0,1,486.509,890.926Z" transform="translate(0 -229.43)" fill="#d9d9d9"/>
  </g>
</svg>
