<svg xmlns="http://www.w3.org/2000/svg" width="88.834" height="123.899" viewBox="0 0 88.834 123.899">
  <g id="Group_90" data-name="Group 90" transform="translate(-509.457 -1980.55)">
    <path id="Path_35" data-name="Path 35" d="M1187.833,382.417a44.417,44.417,0,1,0-64.053,39.848V461.9l19.637-18.7,19.637,18.7V422.265A44.416,44.416,0,0,0,1187.833,382.417Zm-44.417,38.806a38.806,38.806,0,1,1,38.806-38.806A38.85,38.85,0,0,1,1143.417,421.223Z" transform="translate(-589.543 1642.55)" fill="#d9d9d9"/>
    <path id="Subtraction_2" data-name="Subtraction 2" d="M19978,54a26.992,26.992,0,0,1-19.09-46.093,27,27,0,1,1,29.6,43.971A26.822,26.822,0,0,1,19978,54Zm0-41a14,14,0,1,0,9.9,4.1A13.907,13.907,0,0,0,19978,13Z" transform="translate(-19424 1997)" fill="#d9d9d9"/>
  </g>
</svg>
