<svg xmlns="http://www.w3.org/2000/svg" width="130.814" height="138.803" viewBox="0 0 130.814 138.803">
  <g id="wiatraczki-icon" transform="translate(-138.689 21.184)">
    <g id="Group_84" data-name="Group 84" transform="translate(138.69 -21.184)">
      <path id="Path_6450" data-name="Path 6450" d="M428.957,463.9c0-4.375.023-8.749-.019-13.124A1.8,1.8,0,0,1,430,448.852c1.444-.735,2.8-1.652,4.467-2.662V463.9Z" transform="translate(-366.38 -325.093)" fill="#d9d9d9"/>
      <path id="Path_6451" data-name="Path 6451" d="M293.765,300.787c5.683,7.189,10.622,15.047,12.277,24.51a31.338,31.338,0,0,1,.147,7.3,8.027,8.027,0,0,1-2.965,5.622C297,343.767,289.6,346.8,281.59,348.28c-10.669,1.968-21.413,3.532-32.131,5.228-3.314.525-6.65.916-9.753,1.338Z" transform="translate(-235.107 -224.225)" fill="#d9d9d9"/>
      <path id="Path_6452" data-name="Path 6452" d="M224.69,64.511l54.434,54.419c-3.444,2.27-6.824,4.705-10.4,6.806-5.222,3.067-10.779,5.358-16.914,5.8a27.874,27.874,0,0,1-5.177-.2,8.193,8.193,0,0,1-5.313-2.949c-5.555-6.218-8.566-13.63-10.062-21.638-1.86-9.963-3.33-20-4.926-30.012-.538-3.372-.949-6.763-1.411-10.147C224.832,65.936,224.775,65.283,224.69,64.511Z" transform="translate(-224.69 -60.316)" fill="#d9d9d9"/>
      <path id="Path_6453" data-name="Path 6453" d="M431.358,104.882c-5.731-7.242-10.665-15.106-12.322-24.569a31.076,31.076,0,0,1-.138-7.3,7.869,7.869,0,0,1,2.869-5.511,42.173,42.173,0,0,1,20.419-9.836c9-1.762,18.062-3.17,27.112-4.637,4.88-.791,9.791-1.386,14.689-2.064.549-.076,1.1-.117,1.45-.153Z" transform="translate(-359.314 -50.816)" fill="#d9d9d9"/>
      <path id="Path_6454" data-name="Path 6454" d="M474.795,256.722c8.849-6.622,18.078-12.8,30-12.693A9.99,9.99,0,0,1,512.9,247.8a44.559,44.559,0,0,1,9.367,20.332c1.654,8.392,2.969,16.854,4.317,25.3.891,5.585,1.579,11.2,2.355,16.806.04.291.052.585.062.693Z" transform="translate(-398.192 -184.849)" fill="#d9d9d9"/>
      <path id="Path_6455" data-name="Path 6455" d="M502.653,199.4c-10.514.507-19.131,4.954-27.3,10.372-.639-1.648-1.287-3.233-1.847-4.849a1.219,1.219,0,0,1,.3-1.015c5.072-5.092,10.182-10.145,15.251-15.241,1.1-1.106,1.909-1.055,3,.081C495.451,192.263,498.942,195.682,502.653,199.4Z" transform="translate(-397.276 -145.888)" fill="#d9d9d9"/>
      <path id="Path_6456" data-name="Path 6456" d="M373.516,133.689c.54,10.454,4.888,19.029,10.3,27.173-1.674.644-3.3,1.3-4.953,1.869a1.255,1.255,0,0,1-1.01-.36c-4.992-4.968-9.984-9.936-14.921-14.958-1.5-1.524-1.434-1.677.086-3.209C366.425,140.776,369.846,137.363,373.516,133.689Z" transform="translate(-319.836 -108.306)" fill="#d9d9d9"/>
      <path id="Path_6457" data-name="Path 6457" d="M307.7,278.744c10.434-.515,19.04-4.9,27.156-10.283.66,1.689,1.335,3.323,1.912,4.99.089.259-.183.755-.428,1-4.894,4.921-9.787,9.845-14.731,14.715-1.714,1.689-1.833,1.632-3.548-.075C314.7,285.747,311.346,282.39,307.7,278.744Z" transform="translate(-282.273 -201.8)" fill="#d9d9d9"/>
      <path id="Path_6458" data-name="Path 6458" d="M452.742,328.561c-.526-10.431-4.894-19.044-10.287-27.16,1.666-.641,3.254-1.3,4.88-1.84a1.388,1.388,0,0,1,1.126.382q7.339,7.276,14.619,14.612c1.784,1.807,1.737,1.914,0,3.663C459.73,321.578,456.375,324.926,452.742,328.561Z" transform="translate(-375.757 -223.357)" fill="#d9d9d9"/>
      <path id="Path_6459" data-name="Path 6459" d="M429.082,248.093a7.048,7.048,0,1,1-6.911-7.108A7.077,7.077,0,0,1,429.082,248.093Z" transform="translate(-356.702 -182.739)" fill="#d9d9d9"/>
    </g>
  </g>
</svg>
