<svg xmlns="http://www.w3.org/2000/svg" width="313.133" height="145.97" viewBox="0 0 313.133 145.97">
  <path id="splash" d="M20035.309,219.843a8.977,8.977,0,0,1-1.914-1.824c-2.014-2.572-2.65-6.394-.375-8.971,8.576-9.713,29.463.354,39.311,2.008,2.479.415,13.355,2.1,21.2,1.67a12.417,12.417,0,0,1,2.586-1.573c1.3-.63,3.428-.789,4.488-1.767a2.814,2.814,0,0,0,1.193-.589c-.7-2.341-7.525-5.661-8.861-6.747a51.518,51.518,0,0,1-8.7-9.206,1.591,1.591,0,0,1-.258-1.885c2.158-2.766,5.012-3.028,8.25-1.788a17.305,17.305,0,0,1,5.02,3.427c.205.174.379.323.553.466.385.108.764.21,1.143.313,1.686.461,4.627,1.819,6.266,1.716.461.108.922.21,1.385.313a4.168,4.168,0,0,0,.373-.435c.139-.1.246-.215.379-.323.471-1.532.947-3.069,1.42-4.6a9.782,9.782,0,0,0-.662-2.07,1.758,1.758,0,0,1-.322-1.086c-2.156-2.362-6.322-5.021-8-6.5-2.783-2.454-5.621-4.857-8.6-7.075-6.592-4.913-13.7-7.715-20.963-11.3-3.592-1.773-6.988-4-8.781-7.695-3.432-7.07.963-14.171,9.027-12.839,5.025.83,9.246,4.278,12.92,7.592,2.383,2.141,4.693,4.38,6.979,6.64,1.957,1.327,3.719,2.889,5.717,4.457,4.57,3.586,9.6,3.171,14.314,5.81,4.641,2.6,7.3,6.547,12.977,7.726a35.215,35.215,0,0,0,7.506.815,10.04,10.04,0,0,0,4.145-.6c3.314-1.537,2.336-4.042.24-6.558a30.408,30.408,0,0,0-4.334-4.027,27.024,27.024,0,0,1-4.893-4.729c-2.09-2.823-2.879-6.04-4.242-9.2-2.029-4.7-6.137-6.86-8.447-11.035a5.964,5.964,0,0,1-.943-4.391c1.322-4.672,7.311-3.243,9.857-.625,1.777,1.824,2.535,4.421,3.191,6.8,2.238,8.084,3.422,17.962,11.461,22.409,5.148,2.848,5.9-.615,4.508-5.533a24.231,24.231,0,0,0-3.791-7.92,36.2,36.2,0,0,1-4.3-9.242c-1.449-5-2.295-17.116,5.277-18,4.867-.564,5.568,3.545,6.061,7.055,1.01,7.259.256,10.446,6.5,8.136,5.143-1.911,2.826-2.459.789-6.332a36.016,36.016,0,0,1-1.953-3.919c-1.367-3.54-1.6-6.665-.148-10.149.133-.318.518-.087.691.02,5.436,3.5,5.221,9.391,6.322,15.231,1.307,6.865,4.949,11.952,8.684,17.08.293-.738,1.338-.938,1.947.149,1.2,2.141,2.617,4.273,5.066,3.888,1.352-.21,2.521-1.465,3.3-2.531,2.387-3.243.8-6.025-.148-9.339-.609-2.131-.625-4.908,1.48-6.26,1.809-1.148,3.76-.231,4.836,1.47.906,1.44.549,2.679.932,4.221.119.456-.271,1.148-.076,1.542q3.059,3.12,4.186,1.588c-.553-16.071-3.2-31.625-4.908-47.578-.932-8.684,1.926-23.515,13.844-22.183,9.328,1.045,12.459,11.763,12.434,19.606a94.746,94.746,0,0,1-2.506,19.934c-1.619,7.311-4.016,14.831-1.742,22.127q3.059-4.565,6.117-9.124c.65-.973,2.064,1.265,1.814,1.967a55.4,55.4,0,0,0-3.437,19.15,33.434,33.434,0,0,0,.414,5.81c.287,1.035.58,2.075.871,3.115,2.781,1.6,5.574,3.2,8.355,4.8,1.486.1,4.535-.979,6.072-1.1,4.395-.328,6.377-1.875,8.867-5.466a76.552,76.552,0,0,1,6.148-8.095,61.718,61.718,0,0,1,15.5-12.183c.918-.517,2.055,1.634,1.578,2.331q-5.294,7.815-10.594,15.636c5.938-2.72,13.443-6.8,17.2.318,1.2,2.259.768,4.4-.533,6.486-1.27,2.019-4.574,3.351-5.174,5.641-1.076,4.1,2.336,7.828,4.3,10.969a10.969,10.969,0,0,1,1.979,7.3c-.441,4.017-5.518,8.458-5.205,12.111.148,1.824,2.217,4.006,4.344,5.39a15.02,15.02,0,0,0,4.652.056c2.254-.256,3.848-.722,6.188-.364,3.658.564,6.508,1.937,10.287,1.537,4.1-.435,8.254-1.819,12.24-2.833,9.99-2.541,22.193-7.546,30.555.815.123.118.24.241.363.369.395.425,1.01,1.368.732,2-2.059,4.775-6.424,5.1-11,5.922-8.309,1.491-12.52,5.5-18.766,10.543a13.5,13.5,0,0,1-1.617,1.127ZM20337.174,200a3.39,3.39,0,0,1-.3-.687,3.008,3.008,0,0,1-.221-.553,4.1,4.1,0,0,1,2.291-4.9,3.6,3.6,0,0,1,3.949,1.04,6.535,6.535,0,0,1,1.189,1.665c.916,1.855,1.029,4.524-1.092,5.6a3.757,3.757,0,0,1-1.725.424A5.012,5.012,0,0,1,20337.174,200Zm-17.986-50.14c-1.717-1.993-2.506-5.051-.994-7.152a5.186,5.186,0,0,1,5.277-1.849,5.738,5.738,0,0,1,2.756,1.6,8.963,8.963,0,0,1,1.557,2.136c1.748,3.258.943,8.392-3.539,8.709-.1.007-.189.01-.283.01C20321.949,153.314,20320.16,151.77,20319.188,149.861Zm-53.67-28.6a16.158,16.158,0,0,1,1.352-3.059c-1.752-2.623.676-6.137,2.105-8.335,3.238-4.954,8.3-8.673,10.912-14.058,1.773-3.663.5-12.48,5.473-14.027a3.177,3.177,0,0,1,3.441.82,6.087,6.087,0,0,1,.656.8c1.859,2.679.426,4.375-1.209,6.547a22.358,22.358,0,0,0-4.826,10.333,17.785,17.785,0,0,1-2.914,6.855c-3.146,4.4-7.746,7.306-10.855,11.507a.509.509,0,0,1-.088.446,2.282,2.282,0,0,1-.461.343,16.53,16.53,0,0,0-2.014,4.1.067.067,0,0,1-.068.049C20266.682,123.588,20265.3,121.946,20265.518,121.264Zm-158.693-7.557a5.225,5.225,0,0,1-1.574-.963c-.307.036-.65-.43-.809-.64a6,6,0,0,1-.738-1.378,4.828,4.828,0,0,1-.508-3.253c.047-.2.2-.174.369-.061a3.593,3.593,0,0,1,1.594-1.921,2.984,2.984,0,0,1,3.826.707,7.169,7.169,0,0,1,1.8,3.248c.5,2.175-.643,4.5-2.748,4.5A3.462,3.462,0,0,1,20106.824,113.708Zm104.352-3.632a3.688,3.688,0,0,1-.521-2.1c0-.159.061-.231.137-.266a39.506,39.506,0,0,1,3.264-21.553c.139-.3.529-.118.707.015a9.989,9.989,0,0,1,1.045.912c5.328,5.323,2.133,14.821-1.08,21.312.338.517.574,1.132.395,1.486a2.67,2.67,0,0,1-2.645,1.639h-.016C20211.854,111.525,20211.4,110.715,20211.176,110.075Zm-40.877-4.216a1.47,1.47,0,0,0,.076-.128,24.925,24.925,0,0,1-1.619-10.175c.139-2.188,1.313-5.84,4.217-4.329a3.6,3.6,0,0,1,.906.661c1.605,1.6,1.619,4.529,1.486,6.609a19.948,19.948,0,0,1-3.223,9.478.644.644,0,0,1-.553.338A1.886,1.886,0,0,1,20170.3,105.859Zm-34.781-17.89a5.468,5.468,0,0,1-.891-.784c-.047-.046-.092-.1-.139-.149-1.2-1.353-1.947-3.345-.969-4.923.164-.261.42-.231.691-.056a3.505,3.505,0,0,1,2.434-1.926,2.7,2.7,0,0,1,1.846.948,6.753,6.753,0,0,1,1.008,1.306,5.652,5.652,0,0,1,.779,3.776,2.8,2.8,0,0,1-2.791,2.448A3.5,3.5,0,0,1,20135.518,87.969Z" transform="translate(-20031.576 -73.874)" fill="#fff"/>
</svg>
