<svg xmlns="http://www.w3.org/2000/svg" width="320.34" height="162.236" viewBox="0 0 320.34 162.236">
  <g id="go_logo" transform="translate(-83.086 -125.646)">
    <path id="Path_1" data-name="Path 1" d="M443.208,337.695a13.635,13.635,0,0,1-4.022,9.986,14.247,14.247,0,0,1-19.912.01,13.6,13.6,0,0,1-4.037-10,13.953,13.953,0,0,1,3.7-9.678,13.984,13.984,0,0,1,20.565-.025A13.982,13.982,0,0,1,443.208,337.695Zm-3.529.074a10.793,10.793,0,0,0-3.017-7.65,10.19,10.19,0,0,0-14.854,0,10.806,10.806,0,0,0-3.016,7.65,11.018,11.018,0,0,0,1.354,5.343,9.9,9.9,0,0,0,3.817,3.94,10.408,10.408,0,0,0,5.271,1.381,9.681,9.681,0,0,0,9.042-5.247A10.954,10.954,0,0,0,439.679,337.769Z" transform="translate(-174.973 -104.227)" fill="#9d0073"/>
    <path id="Path_2" data-name="Path 2" d="M516.351,326.9a13.721,13.721,0,0,1-4.029,9.947,13.23,13.23,0,0,1-9.83,4.125,12.607,12.607,0,0,1-10.654-5.631v4.938h-3.457V303.048h3.457v14.985a13.318,13.318,0,0,1,10.75-5.308,13.006,13.006,0,0,1,9.795,4.161A13.986,13.986,0,0,1,516.351,326.9Zm-3.5-.1a10.9,10.9,0,0,0-1.456-5.442,10.548,10.548,0,0,0-3.905-4.029,10.165,10.165,0,0,0-5.232-1.441,10.8,10.8,0,0,0-5.382,1.441,10.077,10.077,0,0,0-3.915,3.88,11.028,11.028,0,0,0-1.367,5.492,10.807,10.807,0,0,0,3.017,7.761,10.075,10.075,0,0,0,7.6,3.152,9.937,9.937,0,0,0,9.215-5.393A10.986,10.986,0,0,0,512.847,326.8Z" transform="translate(-213.504 -93.454)" fill="#161615"/>
    <path id="Path_3" data-name="Path 3" d="M571.607,324.414l-1.8,2.936a4.774,4.774,0,0,0-1.821-.469q-4.133,0-5.758,5.819-.639,2.3-.639,9.276v9.074h-3.557V324.19h3.557v3.948q3.12-4.637,6.965-4.64A6.279,6.279,0,0,1,571.607,324.414Z" transform="translate(-250.193 -104.227)" fill="#9d0073"/>
    <path id="Path_4" data-name="Path 4" d="M618.347,351.05h-3.433v-4.615a13.45,13.45,0,0,1-10.778,5.307,13.027,13.027,0,0,1-9.815-4.2,13.932,13.932,0,0,1-3.944-10,13.684,13.684,0,0,1,4.032-9.926,13.227,13.227,0,0,1,9.827-4.121,12.55,12.55,0,0,1,10.679,5.631V324.19h3.433Zm-3.209-13.281a10.79,10.79,0,0,0-3.018-7.76,10.082,10.082,0,0,0-7.6-3.152,9.89,9.89,0,0,0-9.187,5.392,10.862,10.862,0,0,0,0,10.852,10.652,10.652,0,0,0,3.905,4.015,10.217,10.217,0,0,0,5.261,1.441,10.746,10.746,0,0,0,5.367-1.43,10,10,0,0,0,3.905-3.866A11.071,11.071,0,0,0,615.138,337.769Z" transform="translate(-267.234 -104.227)" fill="#9d0073"/>
    <path id="Path_5" data-name="Path 5" d="M679.4,324.961l-15.2,23.774h14.711v3.085H658.246l15.209-23.8H659.676v-3.06Z" transform="translate(-302.987 -104.997)" fill="#9d0073"/>
    <path id="Path_6" data-name="Path 6" d="M733.866,338.145a24.173,24.173,0,0,1-.863,7.207,9.9,9.9,0,0,1-4.324,5.556,12.314,12.314,0,0,1-6.539,1.6q-7.732,0-10.468-6.05-1.306-2.838-1.31-8.566V324.961h3.507v12.528a26.5,26.5,0,0,0,.49,6.312,7.023,7.023,0,0,0,2.953,4,9.419,9.419,0,0,0,9.528.074,6.965,6.965,0,0,0,2.953-3.8,25.91,25.91,0,0,0,.519-6.585V324.961h3.553Z" transform="translate(-330.441 -104.997)" fill="#9d0073"/>
    <g id="Group_1" data-name="Group 1" transform="translate(83.086 125.646)">
      <path id="Path_7" data-name="Path 7" d="M219.012,183.082a1.2,1.2,0,0,0,.714.135c.154-.007.218-.068.218-.149a.41.41,0,0,0-.211-.291.656.656,0,0,0-.674-.028A.207.207,0,0,0,219.012,183.082Z" transform="translate(-154.656 -155.684)" fill="#9d0073"/>
      <path id="Path_8" data-name="Path 8" d="M201.663,160.315a5.549,5.549,0,0,0-4.424-4.665,2.383,2.383,0,0,0-2.925,2.126c-.139,1.747,2.283,4.331,3.83,5.709,1.131,1,2.075.983,2.711.383A4.142,4.142,0,0,0,201.663,160.315Z" transform="translate(-141.677 -141.42)" fill="#9d0073"/>
      <path id="Path_9" data-name="Path 9" d="M166.87,220.765a8.976,8.976,0,0,1-.062-.916,4.382,4.382,0,0,0-3.649-4.16c-3.189.131.149,3.433,1.4,4.866C167.148,223.857,167.008,222.171,166.87,220.765Z" transform="translate(-124.561 -173.08)" fill="#9d0073"/>
      <path id="Path_10" data-name="Path 10" d="M209.59,182.356c-.719,1.59,1.7.71,2.7.429,2.791-.636.768-.976.213-1.263A2.436,2.436,0,0,0,209.59,182.356Z" transform="translate(-149.658 -154.973)" fill="#9d0073"/>
      <path id="Path_11" data-name="Path 11" d="M149.241,188.428c.356-.852-4.28-1.758-6.605-2.776-2.134-.923-4.091-1.952-6.236-2.844-3.928-1.626-14.617-3.032-14.885-.039s7.226,3.053,10.656,3.011a40.822,40.822,0,0,1,4.246.185C143.8,186.67,148.94,189.148,149.241,188.428Z" transform="translate(-103.326 -154.814)" fill="#9d0073"/>
      <path id="Path_12" data-name="Path 12" d="M264.925,377.92v-.408a.07.07,0,0,0-.037.017C264.842,377.579,264.882,377.768,264.925,377.92Z" transform="translate(-178.846 -258.327)" fill="#9d0073"/>
      <path id="Path_13" data-name="Path 13" d="M221.694,189.23c-.7-.476-1.363-1.175-1.9-1.491-1.984-1.154-4.408,1.555-2.421,2.705,1.172.681,2.982-.959,4.276-.888,0,0,.3,0,.329-.053S221.852,189.337,221.694,189.23Z" transform="translate(-153.436 -158.208)" fill="#9d0073"/>
      <path id="Path_14" data-name="Path 14" d="M225.343,416.32a3.436,3.436,0,0,0-.685-2.687c-.459-.436-1.114-.433-1.858.366-1.02,1.089-2.6,3.127-2.44,4.455a1.691,1.691,0,0,0,2.092,1.54A4.059,4.059,0,0,0,225.343,416.32Z" transform="translate(-155.394 -277.201)" fill="#9d0073"/>
      <path id="Path_15" data-name="Path 15" d="M227.065,166.441c1.365-4.665,4.841-9.471,5.987-14.129,2.38-9.695-9.633-18.3-13.3-6.17C217.935,152.163,222.443,162.134,227.065,166.441Z" transform="translate(-154.863 -133.303)" fill="#9d0073"/>
      <path id="Path_16" data-name="Path 16" d="M247.115,133.82a3.459,3.459,0,0,0,2.29-1.956,4.989,4.989,0,0,0-.367-5.456,1.812,1.812,0,0,0-2.872-.106c-.965,1.1-.785,4.1-.529,5.84C245.827,133.412,246.418,133.887,247.115,133.82Z" transform="translate(-168.608 -125.646)" fill="#9d0073"/>
      <path id="Path_17" data-name="Path 17" d="M118.2,304.849c.437-2.652.575-7.228-1.865-8.875-1.951-1.317-5.187-1.324-6.9.231-3.174,2.869-2.4,6.06-.328,8.3a9.037,9.037,0,0,0,5.712,2.925A2.945,2.945,0,0,0,118.2,304.849Z" transform="translate(-95.839 -214.866)" fill="#9d0073"/>
      <path id="Path_18" data-name="Path 18" d="M144.681,313.235a2.527,2.527,0,0,0,1.843.021.907.907,0,0,0,.564-1.14c-.2-.764-.724-1.994-1.56-2.112a1.784,1.784,0,0,0-1.768.979A1.577,1.577,0,0,0,144.681,313.235Z" transform="translate(-114.958 -222.758)" fill="#9d0073"/>
      <path id="Path_19" data-name="Path 19" d="M168.561,346.943a6.759,6.759,0,0,1-2-.426,1.951,1.951,0,0,0-1.9,3.28,1.857,1.857,0,0,0,2.624-.206C167.825,349.023,167.861,347.329,168.561,346.943Z" transform="translate(-125.738 -241.95)" fill="#9d0073"/>
      <path id="Path_20" data-name="Path 20" d="M147.114,453.529c.733-1.388.432-2.283-.387-2.7a4.919,4.919,0,0,0-3.981.333,5.863,5.863,0,0,0-3.635,5.68,2.446,2.446,0,0,0,3.092,2.123C144.089,458.556,146.113,455.439,147.114,453.529Z" transform="translate(-112.594 -296.799)" fill="#9d0073"/>
      <path id="Path_21" data-name="Path 21" d="M141.2,267.656c-1.308-.16-4.491-.661-3.394.379a5.272,5.272,0,0,0,3.8.461C142.278,268.284,144.825,267.986,141.2,267.656Z" transform="translate(-111.79 -200.318)" fill="#9d0073"/>
      <path id="Path_22" data-name="Path 22" d="M165.608,264.53a1.663,1.663,0,0,0-1.9.064,1.472,1.472,0,0,0-.089,2.276,2.5,2.5,0,0,0,1.568.806.812.812,0,0,0,.928-.714C166.239,266.241,166.277,264.981,165.608,264.53Z" transform="translate(-125.25 -198.669)" fill="#9d0073"/>
      <path id="Path_23" data-name="Path 23" d="M106.055,264.734l1.6-.376c-2.2-1.7-7.216-1.686-9.993-2.023-3.418-.412-7.954-.983-11.324-.159-5.213,1.263-3.476,3.631.492,4.941,4.086,1.349,6.61.188,10.584-1.15C100.815,264.823,102.687,265.608,106.055,264.734Z" transform="translate(-83.086 -197.347)" fill="#9d0073"/>
      <path id="Path_24" data-name="Path 24" d="M137.726,228.9c-.8-.8-7.587-6.436-7.633-3.681-.019,1.207,3.442,3.17,4.8,3.965,1.594.934,5.291,3.22,5.829,2.812S138.745,229.908,137.726,228.9Z" transform="translate(-107.849 -177.704)" fill="#9d0073"/>
      <path id="Path_25" data-name="Path 25" d="M173.593,268.712a.89.89,0,0,0,.662.007.328.328,0,0,0,.206-.412c-.075-.273-.259-.717-.561-.756a.633.633,0,0,0-.635.352A.566.566,0,0,0,173.593,268.712Z" transform="translate(-130.558 -200.397)" fill="#9d0073"/>
    </g>
    <path id="Path_26" data-name="Path 26" d="M318.865,284.395h-3.431V279.78a13.45,13.45,0,0,1-10.779,5.307,13.015,13.015,0,0,1-9.816-4.2,13.924,13.924,0,0,1-3.946-10,13.7,13.7,0,0,1,4.033-9.926,13.227,13.227,0,0,1,9.828-4.121,12.545,12.545,0,0,1,10.68,5.63v-4.938h3.431Zm-3.209-13.28a10.8,10.8,0,0,0-3.018-7.761,10.08,10.08,0,0,0-7.6-3.153,9.879,9.879,0,0,0-9.187,5.393,10.853,10.853,0,0,0,0,10.852,10.634,10.634,0,0,0,3.9,4.015,10.229,10.229,0,0,0,5.259,1.441,10.752,10.752,0,0,0,5.37-1.431,9.983,9.983,0,0,0,3.905-3.866A11.042,11.042,0,0,0,315.656,271.115Z" transform="translate(-109.47 -69.114)" fill="#161615"/>
    <path id="Path_27" data-name="Path 27" d="M368.822,273.622h-3.48V236.394h3.48Z" transform="translate(-148.689 -58.341)" fill="#161615"/>
    <path id="Path_28" data-name="Path 28" d="M412.815,271.235H388.693a11.183,11.183,0,0,0,2.812,7.516,9.414,9.414,0,0,0,7.3,3.152,10.662,10.662,0,0,0,7.274-2.609,16.073,16.073,0,0,0,2.932-3.809l2.915,1.53a14.142,14.142,0,0,1-7.53,7.161,14.584,14.584,0,0,1-5.307.911,13.5,13.5,0,0,1-10.011-4,13.692,13.692,0,0,1-3.964-10.046,14.359,14.359,0,0,1,3.137-9.109,12.815,12.815,0,0,1,10.639-5.087,13.226,13.226,0,0,1,10.959,5.208A14.62,14.62,0,0,1,412.815,271.235Zm-3.777-3.01a9.971,9.971,0,0,0-5.507-7.043,10.744,10.744,0,0,0-4.568-1,9.856,9.856,0,0,0-6.79,2.528,11.38,11.38,0,0,0-3.134,5.52Z" transform="translate(-159.104 -69.114)" fill="#161615"/>
    <path id="Path_29" data-name="Path 29" d="M468.081,257.756l-1.8,2.94a4.791,4.791,0,0,0-1.821-.468q-4.138,0-5.758,5.819-.639,2.295-.642,9.276v9.073H454.5V257.536h3.554v3.947q3.125-4.638,6.969-4.639A6.311,6.311,0,0,1,468.081,257.756Z" transform="translate(-195.657 -69.114)" fill="#161615"/>
    <path id="Path_30" data-name="Path 30" d="M491.642,237.785a2.722,2.722,0,0,1-.834,2,2.79,2.79,0,0,1-2.017.824,2.848,2.848,0,0,1-2.825-2.826,2.758,2.758,0,0,1,.82-2.016,2.71,2.71,0,0,1,2.005-.838,2.854,2.854,0,0,1,2.851,2.854Zm-1.061,35.066h-3.472V245.993h3.472Z" transform="translate(-212.232 -57.57)" fill="#161615"/>
    <path id="Path_31" data-name="Path 31" d="M536.209,284.395H532.78V279.78A13.451,13.451,0,0,1,522,285.087a13.013,13.013,0,0,1-9.819-4.2,13.925,13.925,0,0,1-3.944-10,13.692,13.692,0,0,1,4.029-9.926,13.233,13.233,0,0,1,9.83-4.121,12.55,12.55,0,0,1,10.682,5.63v-4.938h3.429ZM533,271.115a10.8,10.8,0,0,0-3.017-7.761,10.069,10.069,0,0,0-7.6-3.153,9.874,9.874,0,0,0-9.187,5.393,10.844,10.844,0,0,0,0,10.852,10.6,10.6,0,0,0,3.9,4.015,10.233,10.233,0,0,0,5.261,1.441,10.764,10.764,0,0,0,5.368-1.431,9.944,9.944,0,0,0,3.9-3.866A10.993,10.993,0,0,0,533,271.115Z" transform="translate(-223.965 -69.114)" fill="#161615"/>
    <path id="Path_32" data-name="Path 32" d="M197.8,196.61c-3.726,1.03-8.649-.582-11.27-3.521,1.332,6.6-4.18,10.841-10.059,8.129-2.519-1.165-19.617-12.9-15.016-7.551,11.459,7.544,5.317,19.28-3.975,15.6-3.03-1.2,1.177,6.217-8.426,3.881-2.845-.692,1.072,1.888,4.993,5.254,3.773,3.241,7.544,7.206,5.282,9.677-4.693,3.66-10.017-.131-14.919,2.411-4.583,2.378-2.81,5.289,1.266,6.013,4.335.77,13.262-6.142,15.48,1.875,1.618,5.854-7.794,5.9-10.162,8.747-2.66,3.2-1.136,6.536,3.7,6.049,2.929-.3,4.393-7.487,6.97-.966,1.109,2.8-1.374,8.573-3.286,9.908,8.878-1.938,18.192,5.006,11.59,15.638-4.521,7.277-13.541,6.5-18.724,13.306-7.059,9.265,1.239,16.5,10.016,10.778,9.34-6.1,6.954-13.487,10.98-22.841,1.535-3.564,6.141-8.558,10.086-4.573,1.377,1.392.781,4.888.19,8.4-.7,4.093-1.39,8.218,1.044,9.07,4.42,1.172,8.93-5.6,5.426-17.249-1.191-3.969,18.838,6.1,19,5.492l.038-87.1C207.3,193.639,198.579,196.4,197.8,196.61ZM182.338,249q2.724,3.822,6.278,3.819a6.736,6.736,0,0,0,5.6-2.591q2.047-2.593,2.046-8.051v-3H187.8v-5.186h13.921v24.019h-4.642l-.818-3.82a8.151,8.151,0,0,1-3.411,2.73,11.728,11.728,0,0,1-5.05,1.09q-5.733,0-10.235-5.321t-4.5-17.062q0-12.822,4.1-19.106a12.724,12.724,0,0,1,11.191-6.276,11.686,11.686,0,0,1,9.826,4.64q3.543,4.644,3.548,12.009h-6.005q0-5.729-1.912-8.6a6.176,6.176,0,0,0-5.458-2.865q-4.37,0-6.552,4.5t-2.183,15.148Q179.608,245.188,182.338,249Z" transform="translate(-30.879 -32.623)" fill="#9d0073"/>
  </g>
</svg>
