<svg xmlns="http://www.w3.org/2000/svg" xmlns:xlink="http://www.w3.org/1999/xlink" width="1077" height="850" viewBox="0 0 1077 850">
  <defs>
    <clipPath id="clip-path">
      <rect id="Rectangle_36" data-name="Rectangle 36" width="1077" height="850" transform="translate(843 2)" fill="none"/>
    </clipPath>
    <linearGradient id="linear-gradient" x1="0.4" y1="0.98" x2="0.136" y2="0.553" gradientUnits="objectBoundingBox">
      <stop offset="0" stop-color="#d090bf"/>
      <stop offset="1" stop-color="#8d126d"/>
    </linearGradient>
  </defs>
  <g id="header-background" transform="translate(-843 -2)" clip-path="url(#clip-path)">
    <g id="Group_87" data-name="Group 87">
      <path id="Path_6443" data-name="Path 6443" d="M0,0H978.307L988.8,716.74S629.75,746.019,385.173,572.352,0,0,0,0Z" transform="translate(1342.848 -28.461)" fill="url(#linear-gradient)"/>
      <g id="Group_86" data-name="Group 86">
        <path id="Path_6446" data-name="Path 6446" d="M951.172,34.152C918.083,8.061,866.306,4.614,827.024,14.959c-104.6,27.535-126.991,158.232-222.2,196.961a5.6,5.6,0,0,0-5.146-.4c-18.64,8-43.732,10.1-60.073-4.647-21.789-19.643-10.743-50.731-1.349-73.12C548.7,108.817,559.842,84.527,554.3,56.69,545.148,10.61,496.274-8.582,453.892,3.563c-51.379,14.694-72.218,63.126-64.076,113.151,4.853,29.839,39.637,82.615,15.347,107.8-30.339,31.438-75.419,1.3-104.3-15.092-46.329-26.388-107.606-43.684-157.18-14.9C108.443,214.969,83.7,259.7,96.749,300.234c7.8,24.137,28.985,39.733,39.93,61.974,12.548,25.438,3.2,43.727-20.69,55.325-11.195,5.448-21.04,10.244-28.14,20.987-27.934,42.335,12.1,76.37,45.931,93.959,54.379,28.241-13.144,67.82-42.378,80.566-25.74,11.195-53.678,21.093-73.221,42.33C-14.4,690.759-1.755,748.383,44.669,763.927c2.1.7,3.749-.85,4.3-2.645,47.279,12.241,66.068-49.031,110.151-46.434,30.987,1.8,41.48,33.838,63.572,50.333a104.033,104.033,0,0,0,46.679,19.192,102.735,102.735,0,0,0,50.376-4.8c27.338-10.2,43.482-31.188,75.818-22.49,24.189,6.548,44.481,22.639,69.169,28.485,21.04,4.949,43.18,4.949,63.274-3.648,13.292-5.7,25.183-14.891,33.132-27.036,5.1-7.8,7-15.544,10.244-24.089,8.794-23.042,25.889-34.885,49.78-26.637,42.181,14.492,63.87,67.619,90.061,100.1C732.767,831,761,852.49,796.738,852.639c32.086.1,64.571-16.144,82.313-43.132,17.843-27.137,18.242-63.02,4.949-92.058-17.142-37.683-52.978-50.678-90.31-61.225-31.486-8.943-65.32-23.589-57.375-63.769,6.245-31.539,33.037-48.278,56.175-66.774,23.44-18.741,38.984-44.327,15.395-69.616-6-6.4-13.993-11.1-19.6-17.891-15.093-18.342-4.493-38.288,8.3-53.578,11.694-13.893,26.786-28.087,28.438-47.38,2.8-32.633-30.19-40.031-55.526-43.631-8.343-1.147-15.246-2.151-22.888-5.449-15.5-6.644-14.694-6.6-12.049-24.636,2.851-19.043,4.4-19.6,19.946-30.588,4.4-3.048,9-5.9,13.59-8.6,23.143-13.494,48.729-22.187,73.672-31.587,37.582-14.094,76.865-30.535,103.449-61.921C967.71,104.319,983.407,59.589,951.172,34.152Z" transform="translate(2300.149 -276.957) rotate(71)" fill="url(#linear-gradient)"/>
        <path id="Path_6445" data-name="Path 6445" d="M951.172,34.152C918.083,8.061,866.306,4.614,827.024,14.959c-104.6,27.535-126.991,158.232-222.2,196.961a5.6,5.6,0,0,0-5.146-.4c-18.64,8-43.732,10.1-60.073-4.647-21.789-19.643-10.743-50.731-1.349-73.12C548.7,108.817,559.842,84.527,554.3,56.69,545.148,10.61,496.274-8.582,453.892,3.563c-51.379,14.694-72.218,63.126-64.076,113.151,4.853,29.839,39.637,82.615,15.347,107.8-30.339,31.438-75.419,1.3-104.3-15.092-46.329-26.388-107.606-43.684-157.18-14.9C108.443,214.969,83.7,259.7,96.749,300.234c7.8,24.137,28.985,39.733,39.93,61.974,12.548,25.438,3.2,43.727-20.69,55.325-11.195,5.448-21.04,10.244-28.14,20.987-27.934,42.335,12.1,76.37,45.931,93.959,54.379,28.241-13.144,67.82-42.378,80.566-25.74,11.195-53.678,21.093-73.221,42.33C-14.4,690.759-1.755,748.383,44.669,763.927c2.1.7,3.749-.85,4.3-2.645,47.279,12.241,66.068-49.031,110.151-46.434,30.987,1.8,41.48,33.838,63.572,50.333a104.033,104.033,0,0,0,46.679,19.192,102.735,102.735,0,0,0,50.376-4.8c27.338-10.2,43.482-31.188,75.818-22.49,24.189,6.548,44.481,22.639,69.169,28.485,21.04,4.949,43.18,4.949,63.274-3.648,13.292-5.7,25.183-14.891,33.132-27.036,5.1-7.8,7-15.544,10.244-24.089,8.794-23.042,25.889-34.885,49.78-26.637,42.181,14.492,63.87,67.619,90.061,100.1C732.767,831,761,852.49,796.738,852.639c32.086.1,64.571-16.144,82.313-43.132,17.843-27.137,18.242-63.02,4.949-92.058-17.142-37.683-52.978-50.678-90.31-61.225-31.486-8.943-65.32-23.589-57.375-63.769,6.245-31.539,33.037-48.278,56.175-66.774,23.44-18.741,38.984-44.327,15.395-69.616-6-6.4-13.993-11.1-19.6-17.891-15.093-18.342-4.493-38.288,8.3-53.578,11.694-13.893,26.786-28.087,28.438-47.38,2.8-32.633-30.19-40.031-55.526-43.631-8.343-1.147-15.246-2.151-22.888-5.449-15.5-6.644-14.694-6.6-12.049-24.636,2.851-19.043,4.4-19.6,19.946-30.588,4.4-3.048,9-5.9,13.59-8.6,23.143-13.494,48.729-22.187,73.672-31.587,37.582-14.094,76.865-30.535,103.449-61.921C967.71,104.319,983.407,59.589,951.172,34.152Z" transform="translate(1988.869 -266.141) rotate(71)" fill="url(#linear-gradient)"/>
        <path id="Path_6444" data-name="Path 6444" d="M1265.963,1006.547c-25.7-16.365-67.849-3.283-77.808-41.374-7.833-30.141,36.858-41.606,49.983-64.532,8.139-14.2,9.028-31.491-.466-44.539a1.317,1.317,0,0,0-.267-1.078c-6.794-8.8-16.714-15.17-22.813-24.392-10.611-16.171-5.866-34.235,6.254-47.934,11.888-13.432,25.664-24.392,28.364-43.34,4.249-29.719-26.126-48.322-49.707-33.385a3.108,3.108,0,0,0-1.277.194c-2.394.656-4.822,1.272-7.216,1.928q-20.206-3.416-13.815-20.342c.927-12.116,2.894-15.744,11.732-23.348,7.449-6.405,16.4-10.5,24.892-15.2a290.778,290.778,0,0,0,46.162-31.457c22.075-18.526,28.407-38.785,18.448-62.793-13.781-41.218-62.91-60.128-101.617-40.446-22.5,11.426-34.2,33.424-46.895,54.072-11.232,18.332-22.654,35.969-47.123,33.5-16.1-1.617-27.748-11.577-39.212-21.765a2.876,2.876,0,0,0-.195-2.433c-9.187-16.209-26.126-26.786-44.578-29.059-9.105-1.122-17.6.267-26.437,2.506-6.905,1.738-18.564,6.949-25.47,5.172q-9.556-7.7-19.026-15.4a44.628,44.628,0,0,1,.884-19.682c4.055-20.8,8.454-38.44-5.983-56.582A50.093,50.093,0,0,0,891.4,446.345a.958.958,0,0,0-.423-.155c-23.546-4.244-47.2-3.006-61.866,18.181-16.753,24.275-11.965,60.054-34.968,80.275-25.164,22.115-77.036,15.015-103.744-1.389-19.1-11.732-30.836-37.319-53.8-38.052a2.96,2.96,0,0,0-2.006-.927c-27.83-2.316-61.793,16.749-41.49,47.7,6.6,10.149,17.059,16.365,25.9,24.2,5.711,5.059,16.287,14.281,16.481,21.692-2.743,7.255-5.443,14.549-8.143,21.808a32.18,32.18,0,0,1-20.609,2.083c-23.853-4.788-36.974-30.219-59.438-38.751-14.743-5.556-35.74-7.177-50.6-1.156-15.627,6.25-21.109,22.964-21.532,38.708a71.365,71.365,0,0,0,18.793,50.173c9.11,9.882,57.932,35.663,60.633,54.188-14.665,22.925-47.429,20.92-69.621,34.313-16.947,10.227-29.991,27.4-29.063,48.007,2.7,61.215,113.3,14.385,109.672,71.545-.117,1.816-7.4,42.426,1.211,58.212,4.978,9.144,13.971,13.043,19.992,20.958,16.593,21.765-6.643,39.558-17.8,54.762-9.377,12.854-16.632,29.486-6.677,44.117a30.234,30.234,0,0,0,30.957,12.81c22.77,2.778,44.074-9.183,66.8-10.688,33.113-2.2,64.26,12.733,69.086,48.357,2.545,18.987-8.066,44.923,7.372,60.248,11.771,11.693,23.525,9.928,47.973,5.789,12.966-.5,26.165-.539,36.241,9.571,14.471,14.627,3.627,35.969,7.216,53.412,4.516,22.115,27.4,33.886,48.668,33.5,75.414-1.272,12.539-134.352,89.963-122.037,1.007-1.336-2.62-.108,0,0,22.308,3.705,20.187,38.285,32.958,53.994,9.149,11.31,25.552,19.875,40.373,16.942,37.552-7.449-1.354-56.655-13.315-70.126a2.863,2.863,0,0,0-1.971-.927c-2.083-4.322,1.626-9.644,6.871-10.688,4.094-.811,7.838.388,11.543,1.928,11.538,9.532,30.991,20.187,44.768,13.975,17.021-7.721,15.476-29.335,11.271-44.233a3.449,3.449,0,0,0-1.2-1.773c-.539-23.93,3.705-47.934,29.874-57.316,26.937-9.688,53.377,2.433,78.576,11.193,25.552,8.838,69.587,11.154,74.491-24.931a4.34,4.34,0,0,0-.116-1.583C1282.017,1023.489,1275.767,1012.836,1265.963,1006.547Z" transform="translate(387.273 -657.676)" fill="url(#linear-gradient)"/>
        <path id="Path_6460" data-name="Path 6460" d="M841.754,712.092c-12.244-7.8-32.32-1.564-37.064-19.708-3.731-14.358,17.557-19.819,23.809-30.74,3.877-6.766,4.3-15-.222-21.216a.628.628,0,0,0-.127-.514c-3.236-4.191-7.962-7.226-10.867-11.619-5.054-7.7-2.794-16.308,2.979-22.834,5.663-6.4,12.225-11.619,13.511-20.645,2.024-14.157-12.445-23.018-23.678-15.9a1.481,1.481,0,0,0-.608.092c-1.14.312-2.3.606-3.437.918q-9.625-1.627-6.581-9.69c.442-5.772,1.379-7.5,5.589-11.122,3.549-3.051,7.814-5,11.857-7.243A138.514,138.514,0,0,0,838.9,526.884c10.516-8.825,13.532-18.476,8.788-29.912-6.564-19.634-29.967-28.642-48.406-19.267-10.719,5.443-16.29,15.922-22.338,25.757C771.6,512.2,766.156,520.6,754.5,519.419c-7.668-.771-13.218-5.515-18.679-10.368a1.37,1.37,0,0,0-.093-1.159,28.362,28.362,0,0,0-21.235-13.842,33.524,33.524,0,0,0-12.593,1.194c-3.289.828-8.843,3.31-12.133,2.464q-4.552-3.668-9.063-7.335a21.259,21.259,0,0,1,.421-9.375c1.931-9.91,4.027-18.311-2.85-26.953a23.862,23.862,0,0,0-14.946-8.806.456.456,0,0,0-.2-.074c-11.216-2.022-22.486-1.432-29.47,8.66-7.98,11.564-5.7,28.607-16.657,38.239-11.987,10.534-36.7,7.152-49.419-.662-9.1-5.589-14.689-17.777-25.628-18.126a1.41,1.41,0,0,0-.955-.442c-13.257-1.1-29.435,7.978-19.764,22.723,3.144,4.835,8.126,7.8,12.336,11.527,2.72,2.41,7.758,6.8,7.851,10.333-1.307,3.456-2.593,6.93-3.879,10.388a15.329,15.329,0,0,1-9.817.992c-11.362-2.281-17.613-14.4-28.313-18.459-7.023-2.646-17.025-3.419-24.1-.551-7.444,2.977-10.056,10.939-10.257,18.439a34,34,0,0,0,8.952,23.9c4.339,4.707,27.6,16.988,28.883,25.813-6.986,10.92-22.593,9.965-33.164,16.345-8.073,4.872-14.286,13.051-13.844,22.868,1.286,29.16,53.971,6.852,52.243,34.081-.056.865-3.524,20.21.577,27.73,2.371,4.356,6.655,6.213,9.523,9.984,7.9,10.368-3.164,18.844-8.478,26.086-4.467,6.123-7.923,14.046-3.181,21.015a14.4,14.4,0,0,0,14.746,6.1c10.847,1.323,20.995-4.374,31.823-5.091,15.774-1.048,30.61,6.065,32.91,23.035,1.212,9.044-3.842,21.4,3.512,28.7,5.607,5.57,14.781,5.055,21.9,3.512a1.353,1.353,0,0,0,.955-.754c6.176-.24,12.464-.257,17.263,4.559,6.893,6.967,1.728,17.134,3.437,25.443,2.151,10.534,13.053,16.142,23.183,15.959,35.924-.606,4.393-63.391,41.274-57.524a1.611,1.611,0,0,0,1.58-.608c10.627,1.765,9.616,18.237,15.7,25.72,4.358,5.387,12.172,9.468,19.232,8.071,17.888-3.548-.645-26.988-6.343-33.4a1.364,1.364,0,0,0-.939-.442c-.992-2.059.775-4.594,3.273-5.091a9.341,9.341,0,0,1,5.5.918c5.5,4.541,14.763,9.616,21.325,6.657,8.108-3.678,7.372-13.974,5.369-21.071a1.643,1.643,0,0,0-.571-.844c-.257-11.4,1.765-22.834,14.231-27.3,12.831-4.615,25.426,1.159,37.43,5.332,12.172,4.21,33.148,5.313,35.484-11.876a2.067,2.067,0,0,0-.055-.754C849.4,720.163,846.424,715.088,841.754,712.092Z" transform="translate(1214.841 -517.511)" fill="rgba(208,144,191,0.51)"/>
      </g>
    </g>
  </g>
</svg>
